<?xml version="1.0" encoding="UTF-8"?>
<svg width="512" height="512" viewBox="0 0 512 512" fill="none" xmlns="http://www.w3.org/2000/svg">
  <!-- Outer Circle with Gradient -->
  <defs>
    <linearGradient id="bgGradient" x1="0%" y1="0%" x2="100%" y2="100%">
      <stop offset="0%" style="stop-color:#2C3E50"/>
      <stop offset="100%" style="stop-color:#3498DB"/>
    </linearGradient>
    <linearGradient id="sunGradient" x1="0%" y1="0%" x2="100%" y2="100%">
      <stop offset="0%" style="stop-color:#F1C40F"/>
      <stop offset="100%" style="stop-color:#F39C12"/>
    </linearGradient>
    <filter id="glow">
      <feGaussianBlur stdDeviation="3" result="coloredBlur"/>
      <feMerge>
        <feMergeNode in="coloredBlur"/>
        <feMergeNode in="SourceGraphic"/>
      </feMerge>
    </filter>
  </defs>

  <!-- Background Circle -->
  <circle cx="256" cy="256" r="240" fill="url(#bgGradient)"/>
  
  <!-- Decorative Constellation Lines -->
  <g stroke="#E8F6FF" stroke-width="1" opacity="0.3">
    <line x1="128" y1="128" x2="384" y2="384"/>
    <line x1="128" y1="384" x2="384" y2="128"/>
    <line x1="256" y1="96" x2="256" y2="416"/>
    <line x1="96" y1="256" x2="416" y2="256"/>
  </g>

  <!-- Zodiac Ring -->
  <circle 
    cx="256" 
    cy="256" 
    r="200" 
    stroke="#E8F6FF" 
    stroke-width="4"
    stroke-dasharray="8 4"
    fill="none"
    opacity="0.8"
  />

  <!-- Sun Symbol -->
  <g filter="url(#glow)">
    <circle cx="256" cy="256" r="80" fill="url(#sunGradient)"/>
    <!-- Sun Rays -->
    <g transform="translate(256 256)">
      {[0, 45, 90, 135, 180, 225, 270, 315].map(angle => `
        <path 
          d="M0 -120L15 -90L-15 -90Z" 
          fill="#F1C40F"
          transform="rotate(${angle})"
          opacity="0.9"
        />
      `)}
    </g>
  </g>

  <!-- Moon Phases -->
  <g transform="translate(256 256)">
    <!-- New Moon -->
    <circle cx="-120" cy="0" r="20" fill="#E8F6FF"/>
    <!-- Quarter Moon -->
    <path
      d="M100,-20 A20,20 0 1,1 100,20"
      fill="#E8F6FF"
    />
  </g>

  <!-- Stars -->
  <g fill="#E8F6FF" filter="url(#glow)">
    <circle cx="176" cy="176" r="4"/>
    <circle cx="336" cy="176" r="4"/>
    <circle cx="176" cy="336" r="4"/>
    <circle cx="336" cy="336" r="4"/>
    <circle cx="256" cy="136" r="4"/>
    <circle cx="256" cy="376" r="4"/>
    <circle cx="136" cy="256" r="4"/>
    <circle cx="376" cy="256" r="4"/>
  </g>

  <!-- Sanskrit Om Symbol -->
  <g transform="translate(256 256) scale(0.4)" fill="#E8F6FF">
    <path d="M0,0 C30,-40 60,-30 60,0 C60,30 30,40 0,30 C-30,40 -60,30 -60,0 C-60,-30 -30,-40 0,0 Z" opacity="0.9"/>
    <path d="M0,40 C20,40 40,60 40,80 C40,100 20,120 0,120 C-20,120 -40,100 -40,80 C-40,60 -20,40 0,40 Z" opacity="0.9"/>
  </g>
</svg> 